<svg xmlns="http://www.w3.org/2000/svg" width="90%" height="90%" viewBox="-65 0 450 450">
  <defs>
    <style>
      .cls-1 {
        fill: white;
        fill-rule: evenodd;
      }
    </style>
  </defs>
  <path id="Color_Fill_2" data-name="Color Fill 2" class="cls-1" d="M284,196c0.092,5.938-.184,7.309-3,10h-1q1-3.5,2-7l-5-2c-0.571,6.627-2.837,9.059-1,12,1.964-3.728-.428-1.635,4-3l1,1-2,2-4,6,4,2-1,2h-1l-5-3,1,4-5-1,6,7-9-4,16,21-4,2h8c-0.536,6.917,3.266,15.158,5,18,5.246,1.416,8.3,3.027,11,7-2.155,4.24-2.436,1.732-1,6,5.678,2.614,8.681,9.934,10,14l-1,2c-10.261.217-9.561,3.414-17,4,0.054,4.071.137,3.044-1,7l11-4c-2.8,4.26-3.379.68-1,5l-9,1,1,2,3,1c3.507-1.578,8.579-3.128,11-6-2.83-3.379-4.041-2.873-3-8l10-1c-0.541,2.491-1.022,6.6,4,4h1c0.439,4.257,4.793,2.685,7,10h-8l1,2,10,3c0.467,9.619,12.18,16.089,12,24-5.079-1.311-3.395-2.353-6,2l11,1-2,6h5l-2,3h-8l2,3,10-5-3,8c4.041-1.109,6-.788,9,1q1,4.5,2,9l-4,1c2.862,3.283,2.252,1,2,6-3.215.843-1.233-.858-5,1q-1-2.5-2-5l-2,1c0.681,6.506,3.554,4.2,3,9l-7,1,3,3,14-3v4l-2,2c-3.609-2.668-.423-2.7-5-1q-1,4-2,8h1c3.225-1.485,7.9-2.882,12-1-16.033.993-16.322,6.3-25-5l-4,1v1c2.961,2.729,2.225,1.057,3,4-4.51,1.781-4.774,3.21-7,7l6-6h4c2.974,2.173,3.289,1.137,5,5-1.863.728-1.066,0.308,0,2,5.154-1.714,6.059,6.994,18,5-2.177,6.057-3.289,3.263-7,6v1l3,1,11-2c0.447,2.78,1.16,1.571,1,6,5.553-1.6,4.121.4,10,3l-3,4h4l-8,4c-0.894.633-4.766-.036-9,3l-4-4q1,4,2,8c-5.722,1.007-8.511,2.5-9,9l-11,1c-0.62-5.589,1.108-3.024-5-4l1-2,8-4-3-3c-5.6,2.011-18.728,7.06-17,11-4-1.421-1.792-.412-3-3-1.344-2.781,1.237-5.649,0-11,4.032,0.163,3.41,1.2,6-1v-1c-5.028.828-14.032-.334-16-2-1.923-1.392-.6-0.1-2-2l4-1v-1c-6.264-.347-7.719-0.7-12,1l4-7c-5.588.336-4.821,2.209-7-3,0.757-.516,1.581-5.07,3-4,2.229-4.225,1.558-1.775,5-3v-4l-3-2c-2.765,3.737-4.2,5.41-10,7V395l5-3q-1-4.5-2-9c9.428-1.493,16.574-6.33,21-13-7.784,1.984-6.2,3.983-13,6,1.2-4.522.561-1.79-1-7l5-4c-7.464-.186-8.692.268-15,2,0.742,3.5.949,3.376-1,6h-6v1c5.083,3.048,7.86,5.559,4,10l-15-4,2-1,2-4q-1-4-2-8l-5,1,5-6c0.291-1.9,3.889-3.31,7-5v-1l-2-1-11,5c-6.488-6.019-7.93-5.8-18-5-1.408-4.838-2.992-5.142-6-8v-1c7.26-1.535,15.435-3.477,19-9l-5-1c-3.578,2.694-5.043,4.186-11,5q0.5-2.5,1-5l-5,3-3-4,3-1-5-2,2-3c3.06,2.66.8,2.182,5,2q1-2.5,2-5l-7-1,3-6c-3.365,1.856-3.516,2.525-9,3l-2-4-1,3-3-2c1.128-3.773,2.155-1.03,0-4v-2l-7,3v5c-4.938-2.555-9.679-3.027-9-9H210v-2l3-1c-4.769-.752-4.478-1.927-8,0h-2c5.592,7.037,10.21,11.2,15,20q-2.5,2.5-5,5l-4-5,3,7h-4c2.545,3.607,3.527,3.607,4,10l-6,1,3,1c-2.2,6.312-4.885,8.206-8,13-3.212-1.573-12.231-4.481-13-4-2.222,1.257-3.512,2.061-5,3,2.828,6.382,4.639,4.32,11,6l-2,6-8,6-6-2c2.185,3.34,1.083,2.993,6,4l-1,2c-8.872.114-6.746,0.724-15-2v1c1.776,3.943,3.763,9.345,7,12v-4l5,3-3,6c-0.8-1.315-6.219-5.731-12-6v1l7,6c-4.03.4-3.912,0.327-6,2l3,4c-6.049,1.07-5.422,1.026-5,6-3.014-1.231-1.83-1.3-5-1v5c-5.211.265-11.535-1.119-10,3l-12-6-1,1,8,8c-3.575,1.881-2.685,1.786-2,6-6.716.254-7.4,1.843-12,2,0.933,8.131-1.413,5.9-7,7l3,2-8-2,2,4c-5.275-.209-7.1-1-9,1q-0.5,2-1,4c-7.553-1.389-4.911-1-13,0l1,4c-16.9-.26-30.521-5.16-33-17,12.032,0.217,22.733-8.177,25-16,4.037,2.383,2.025,1.631,7-2,0.057-.143,12-28,12-28-2.357-4.439-5.684-9.1-5-11,0.425-2.6-.976-0.546,1-3,1.786,2.133,1.352,2.433,4,4v-7l3,3c-6.465-14.853,12.711-61.794,30-62v3c-2.6.866-3.492-.4-2,2h5q-1-9-2-18l4,3c-5.451-8.639.967-6.649,0-14,5.272,0.043,5.863-1.42,13-1-2.149-5.342-2.295-1.926-5-5v-7c4.925-12.722,12.92-12.18,19-19l-2-5,4,1c-3.027-8.1-1.085-9.859,2-18-3.683,1.241-5.912.9-11-1q-1-5-2-10h5q1,3,2,6l3-1q-0.5-2.5-1-5h4l-4-4h3c1.6,1.565-.131.322,2,1v-1q-0.5-1-1-2c-8.143,2.027-7.957,4.439-16,3,1.043-2.629,1.563-1.657,1-4-3.161.095-1.445,1.753-3-1l-8-6h2c3.953-5.151,10.7-8.719,16-12q-0.5,2-1,4l4-3q1-3,2-6c-7.238,1.737-14.342,8.059-24,4-1.923-1.392-.6-0.1-2-2-1.836-3.924-1.325-5.186,0-8-4.281,1.545-5.4,1.472-10,0q0.5-3,1-6c-3.167.031-2.635,2.419-4-1v-7c-4.975,1.118-1.474-.475-5-1,0.456-2.674-.615-1.509,2-4,2.1-3.727,4.583-4.676,9-6l-2-1c-0.289-4.183-.852-2.6-1-7-7.6,2.14-5.155,3.781-10,8l-3-2c-0.559-8.722-2.006-10.1,1-15l-1-1-5,3c2.282-5.281,1.8-3.606,1-9,4.073-1.032,4.806-1.253,7-4v-1l-14,1c2.184,1.508,4.336.146,3,3l-6,2c-1.379-3.263-1.009-1.942-3-4,5.149-2.112,2.441.242,3-5,6.083,0.415,4.794,3.415,7-3l-8,2q1-3,2-6h-1l-4,2c-0.4-9.377-2.093-5.261,0-12-3.564.04-2.087,0.913-5-1v-6c5.8-1.6,3.433-1.393,5-5l-3,1c2.69-4.383,7.668-5.317,11-9l-11,3c-0.65-3.44.321-3.121-4-3,1.007-4.8,2.721-10.029,4-11-2.1-1.685-1.975-1.549-6-2,1.032-4.477,1.651-4.369,4-7H99l3-4,3-2-4,2c1.124-5.316.93-5.035,4-8-4.021-4.728-4.939-2.545-2-8,3.1-2.355,2.454-.257,2-4-0.118-4.915-2.916-5.42,3-10,1.988-11.905,13.889-14.547,24-16l1,1c-9.211,14.582.846,46.927,19,56,3.3,1.649,10.244-2.159,12,0h2q-0.5,2-1,4h-4c2.309,1.481,4.261,1.875,6,4l-5,1c16.507,0.48,45.088,33.968,42,46-1.059,3.651-.814,2.941-3,5l-2-1,2-3-3,1q-1,2-2,4c12.426,3.336,15.787,9.551,25,13-2.08,3.871-3.013,1.21-1,5,2.534-4.448,1.893-3.741,6-2,1.036-9.026,5.014-15.921,11-20h1c1.954,7.285,9.574,12.56,14,17v-6c2.835,1.11,1.454.865,4,1v-1l-8-7,1-1c2.822,1.017,1.575.707,3,0l5,6,2-1v-1l-1-4-9-6-2,1c-0.726,5.629-.033,4.675-5,6l-5-9c8.1-3.587-1.406-12.878,9-17,0.243,5.358.364,5.481,3,8-0.58-16.154,15.815-32.438,13-38l3,1v5c4.03-.4,3.912-0.327,6-2-3.944-.664-5.2-2.422-6-9l6-1-2-5,5,1c1.312,3.427,1.014,4.114,4,6V77c-2.444-3.728-4.707-5.22-8-8l8-1-4-6c4.373-8,10.118-10.472,18-11v1l-3,8,3,1,3-2c-0.126-3.443-.2-2.555,1-6l5,3v4l2-1V58c-0.846-6.782-3.694-9.831-8-13l1-2,3-1,2,1v4l10-1-6-6q-0.5-2.5-1-5l2,1c1.824,4.141,3.406,4.819,7,7,0.107,9.5,1.861,8.572-3,16l4,4h1q-1-3-2-6l5,2c-1.592-4.045-3.068-8.182,0-12,2.663,1.381.656,1.873,3,0-2.918-4.391-.236-12.738-4-21h5l2,5h1V27l-6-10c5.5-3.505,3.71-5.766,4-14l4,1-2-4,11,5c-2.149,5.431-.14,4.09,4,8l-2,5,6-5c5.5,3.886,9.47,3.045,14,4,2.666,8.494,2.421,7.389,3,15h-1l-5-5-4-1c3.528,11.73,14.734,11.847,18,19-3.191,1.678-1.136-.5-2,3l-8-2q-0.5,2.5-1,5l-3-1c-0.645-4.234.832-3.685-5-5,3.543,5.161,7.8,14.963,7,17l1,2-6-2,6,11h-7q1,3.5,2,7l-3,1c-1.451-3.859-.43-1.063-4,1h-1c-0.319-2.4-1.13-3.546-7-5q-1,3-2,6c5.442-.427,6.734.028,11,5v1c-6.061.7-5.024,1.118-6,4l-8-4-6,7c-7.3-5.44-9.006-12.02-21-12,1.277,3.223,1.617,3.585,1,7,3.713-.969,2.346-1.013,8-1v3c-3.826.662-2.206,0.2-5,4l-5-3v7l2,2c1.739,2.175,3.411,2.71,6,4,1.932-3.027.2-1.619,4-3,2.184,4.5,1.066,3.66,4,3h3q-0.5-3.5-1-7l6,1,3,16c-7.1-2.248-9.248.865-15,5,4.979,1.047,3.345-.348,5,4-5.452-2.636-5.408-2.968-10,0,0.345-5.434,1.957-2.994,0-6-3.2,3.6-2.5,1.167-6,2,5.375,8.416,9.143,18.058,13,28-4.35,2.391-3.748,4.716-6,9l-8-7-4-5h-4q0.5,3,1,6c5.966,1.032,6.6,2.7,9,7v1l-5,1,4,2-2,5c-1.355-2.055-1.12-1.609-3-3q0.5,3,1,6h-4l3-4-11-4q2.5,5,5,10h-6v1c3.986,1.977,3.983,2.062,6,6l-4,2-1-2c2.4,4.132,1.286,3.328,6,3v4c-3.619-.134-3.706-2.239-5,1l-1,3c3.046,1.746,2.358.552,4,4H284ZM333,13l4,7V16Zm0,10c1.392,1.922.1,0.6,2,2-4.289,8.846,1.257,12.476,6,20,4.033-2.576,7.8-5.331,12-5C349.166,30.976,343.411,25.65,333,23Zm-6,2c0.959,4.628-.891,3.918,3,6q-0.5-3-1-6h-2Zm29,13,2,2Zm-11,9c1.759,3.18-1.106,2.4,4,4ZM319,59l7,2Zm29,0c1.373,1.9.973,1.636,3,3ZM109,61l-3,4h3q0.5-2,1-4h-1ZM329,78l-2,1,1,2,3-1Zm-61,5,2,2Zm-8,14,2,1Zm-3,6,4,3Zm66,8v3h2Zm-13,30,2,1Zm-16,6v4h1Zm-78,13q-0.5,1-1,2l4,2v-4h-3Zm48,56v3l1-3h-1Zm-88,9c-1.63,2.758-2.959,2.916-5,5l10-3C179.016,225.4,179.611,225.7,176,225Zm11,8v4h1l2-2Zm-8,3,4,1Zm-1,5,2,1Zm51,54-1,3,5,1Zm60,1,2,1Zm-60,10,4,2Zm14,12,2,2C243.608,318.077,244.9,319.4,243,318Zm82,4,2,1Zm-69,3,1,2,1-2h-2Zm74,1v0Zm-61,8,2,1Zm16,27,2,1Zm2,13-1,2,4-2h-3Zm26,17v3h2Zm44,21-1,2h3Zm3,1,2,1Zm7,1,3,1Zm-21,1-9,2c1.444,4.5,1.041,9.7-1,13,13.26,0.016,21.613-4.384,25-13l-4,3c-1.038-4.322-.352-2.8-3-5h-8Zm-27,3c2.343,2.124-.113.441,3,1v-1h-3Zm11,1-2,3,5-2v-1h-3Zm34,4-2,1h7v-1h-5Zm-252,8c1.923,3.14,2.129,2.816,6,4Z" transform="translate(-65)"/>
</svg>
