<svg xmlns="http://www.w3.org/2000/svg" width="90%" height="90%" viewBox="0 0 450 450">
  <defs>
    <style>
      .cls-1 {
      fill: white;
      fill-rule: evenodd;
      }
    </style>
  </defs>
  <path id="Color_Fill_1" data-name="Color Fill 1" class="cls-1" d="M435,264l-6-1,6,7c-1.992,6.736-5.392,14.94-8,23-2.881-.607-1.635-2.671-3,0-2.827,5.707.737,16.851-3,23-2.422,2.492-3.327,1.193-6,2-0.237,15.452-9.08,20.308-14,29l-2-1c-2.618-8.58-10.5-11.395-10-19-1.854,1.851-2.154,5.131-3,8h-4l2,3,4,3v3c-5.769-1.089-2.372-2.3-6,2l-3-9h-1q-0.5,4-1,8c7.233,3.485,2.868,4.515,8,8l3-2q1-4,2-8h5c0.667,2.846,2.807,3.926,3,11-6.734,1.012-3.233,5.245-9,7,3.24,6.444.07,11.352-5,15h-3c1.218-4.642,2.6-6.444,0-10v2c-4.582,9.05-6.8,21.11-17,21-1.143-3.89-.9-4.064-4-6v1l3,7c-7.115,4.476-14.157,15.228-21,17v-1l3-6h-8l1,5c0.912-3.651-.038-2.045,2-4v6q-1,3.5-2,7c-3.975-1.377-4.394-1.382-9-1l-1,5-3-2v-8l-3,2c0.256,6.532,1.507,7.332,4,11-6.707-1.665-5.753-.485-11-4q-0.5,5-1,10l-5,3c-8.786.422-13.6,2.513-20-2,1.536-1.625,2.537-.376,1-2l8-5-8-1c-1.559,3.455-2.157,3.163-5,5v-9l-5,3c-1.263,5.239-1.717,8.332-1,14h-7l1-2c3.027-1.932,1.619-.2,3-4l-2-2c-4,.638-4.39-0.189-8-2l-2,1q-0.5,6.5-1,13h-2c1.316-5.494,1.305-7.149,1-14,4.8-3.3,10.5-7.154,15-13-5.835.912-4.418,0.635-9-4,1.7,5.256-.746,8.757-5,11l-4,1,2-4-5,2v5c-6.928.923-11.071,6.867-15,14l-3-1q1-3.5,2-7l-5-4-2,1-2,6c2.606-2.122,2.074-2.66,6-4v1c-2.015,3.449-4.232,9.4-6,13-4.213-2.212-11.5,2.335-20,8-1.4-3.407-1.345-3.073-4-5q-0.5,2.5-1,5l-3-1c0.159-6.1.22-6.12-1-10,5.1,0.1,4.019.568,7-3-1.2-2.23-1.094-2.486-3-4l1-2h8q-0.5,3-1,6l3-2,2-6H205q0.5-3,1-6c-3.121-.763-14-8.483-19-12,2.687-5.456,6.611-13.852,4-19q-1-2.5-2-5h-2q-1,6.5-2,13c-2.846-2.683-2.956-2.922-9-3q0.5-3.5,1-7l-12,6v6l6,3v1c-4.363,2.105-5.656,5.06-8,9l1,2,2-1,3-6c4.235,2.751,8.264-.22,13,3l-1,3-17,8c-1.7-7.424-13.576-13.417-16-13-0.024,3.062.962,1.4-1,4h-1c-0.2-6.875-1.15-6.51-4-10l4-1c-1.6-3.18-.112-5.124-4-6-2.355,3.1-.257,2.454-4,2q-1,4-2,8c-14.021-1.545-15.159,1.079-25,4l-15-8,1-3,13-10-3-5c-2.024-2.078-1-1.365-5-2v1c3.635,0.644,3.027.4,5,2v1c-8.171,1.169-7.933,5.631-15,8l-1-7c-2.261,1.755-2.352,2.671-4,5l-7-4,4-2c-6.307-.947-8.531-0.748-10-7h1c4.268,2.776,2.616,3.524,7,2l3-8H82c-1.893,3.271-4.269.87-10,1,1.407-3.759,1.337-3.328,1-8-4.2,1.537-2.448-.184-4,4l-7-1-2-4v-1l6,3a15.776,15.776,0,0,0-5-5c-3.081,2.925-2.032.4-2,5l-5-1V356c-3.374-.506-1.3,1.054-4-2l-4,4c-3.719-5.258-1.7-7.088,0-14-4.939-3.509-8.349-7.016-9-15l3,2,2,7h5L37,320l-2,1c2.678,4.444,3.831,3.511-1,7l-3-14-5,2c0.014-3.162.132-1.418-1-3,2.086-2.675,3.9-2.384,7-4l-4-1,2-7c-4.538-.056-5.747-0.2-8-2l9-2,5,6c-2.286-6.388-.026-10.509-2-19l-2-1c-5.314,1.338-3.234,3.034-7,1-2.055-1.355-1.609-1.12-3-3l3-3c-5.262-1.4-2.741-1.814-6-5v-1l7,1-2-6,3,1-7-7,2,6c-7.959,1.657-5.1-1.431-10,1l3-11,3-1c3.765,1.392,7.58,5.165,10,8l2-1v-5c-4.841-2.665-4.974-9.737-8-14l-3,3c0.953,4.236.942,3.424-2,6v-2c-4.277-8.15-2.253-25.473-4-36h4l9,10c-0.758-8.7-4.248-17.972-12-17,1.38-3.721,1.379-4.329,5-6l6,9,7-4c-5.935-.882-3.609-2.832-6,0-5.392-1.741-4.889-4.087-10-6l6-7c-6.457-1.537-6.078-5.506-8-11,3.773-3.633,4.246-10.356,8-14l2,1c-0.292,8.511-1.255,9.963,0,16l-6-1,1,3,8,3,1-3c-2.657-4.38-3.745-5.974,0-10v5l2-1v-8c1.785,2.6,1.6,1.611,1,5l3-1c-1.387-8.609-5.743-6.009-11-10v-7c3.635-.644,3.027-0.4,5-2l-5-1a28.813,28.813,0,0,0,4-19c3.009,1.477,5.685,2.013,11,2l1,3c-2.451,2.535-1.218.542-2,3l11-3v1l-5,2v1h8l5-4-3-4-8-3-4-17,3-6h3l2,6c-0.679-9.035-3.432-14.045,0-22l7-5c-2.826-5.184-1.977-3.878,2-9,7.681-3.01,3.429-5.917,9-12,4.383,3.293,9.388.44,12,8,3.645-4.326,4.875-2.595,4-4,2.5-5.565,2.867-3.8,6-7l-5-6c-2.587,2.265-2.134,1.333-7,1l1-3L96,48c4.606,1.581,2.673,2.678,6,1l-4-5c5.369-1.768,6.012.3,10-4,3.019,2.155,2.867,1.639,4,6h4q1-7.5,2-15l-1-3-2,1v6l-2-1c-0.871-4.5-.923-3.444-3-6,4.044-1.58,3.62-2.111,6-5,3.562,4.117-.258,2.563,7,2-0.579,4.595-1.744,3.758-1,7h1l4-1V30q-1-4-2-8h1a11.222,11.222,0,0,0,9-1c-1.373-1.9-.973-1.636-3-3,2.286-1.525,1.215-1.826,4-1,9.785-4.04,13.3-7.5,26-10,0.755,4.175-1.171,3.774,3,3,4.971-.194-0.2-0.878,5-2,1.23,5.027,2.4,9.026,7,11V16q-1-4.5-2-9h1c3.178,0.939,7.027.84,6-4,12.224,1.945,12.6,3.715,21-3,7.015,2.4,4.242,3.416,10,1,1.341,5.835,1.676,6.39,2,11h4l-3-4c4.295-1.246,1.879.47,2-4,5.332,1.316,5.795,3,9,6l8-4c1.277,3.25-.727,2.617,3,5,5.972,3.073,8.5.217,14,3,1.472,3.54,7.6,13.162,11,15,13.127,4.575,28.1,5.466,32-5,3.28,1.272,1.2.917,5,1q-1,3-2,6h8l-1,2-3,2c25.659-11.2,78.465,24.626,78,49h-1l-3-3V78l-2,1q-0.5,3-1,6c7.678,1.222,16.184,4.575,21,9-3.651.912-2.045-.038-4,2l10,1q2.5,10,5,20c-3.439,1.9-3.109-1.341-4,5l5,1,1-4c16.85,9.371,11.674,31.823,13,42,1.63,4.369.042,2.941,5,4-2.288,2.786-2.089,1.4-2,3,5.27,5.4,7.156,8.428,10,18-4.411-2.812-5.017-6.577-8-8,1.226,7.447,2.629,10.445,6,15v1l-8-3-8,5,1,3c6.793-2.093,8.44-3.374,14,0C430.42,217.521,434.894,239.219,435,264ZM117,124q1,9.5,2,19l-4-2,4,8c-5.3,3.182-5.535,1.919-4,8l-4-2c-0.9,5.261-.306,4.558-5,6-1.963-2.066-.375-1.035-4-2q-0.5,1-1,2v1q0.5,1,1,2l6-2c3.269,22.916-11.727,23.773-14,39l4,2H93c4.213,6.376,3.412,9.689,5,19l-2-1c-1.93-3.78-2.841-3.294-2-8l-2,1c-0.126,7.369.206,7.243,2,13H93l-9-4-6,4v1c7.806-.431,10.828-0.1,14,4-3.239,14.221,11.662,39.813,5,50l5,1c-0.949,7.015.547,12.388,0,18l11,5q-1,3.5-2,7c6.624,2.032,11.157,8.486,13,13-8.484,2.605-11.863,10.067-20,9l6,4c-2.042,1.8-.707.015-2,3h1l6-6h4c-2.129,4.15-2.2,1.422-1,5l-8,4c6.88,0.723,13-3.305,14-9l-6-1v-4c5.431-4.051,21.125-5.893,24,3l-7,2v1c9.457-.886,18.5-0.849,17,6,6.226-.9,11.85,3.44,20,1-1.537,4.2.184,2.448-4,4q0.5,2.5,1,5c2.6-.425.546,0.976,3-1l-2,1c1.273-5.329,2.7-6.7,8-8,2.158,5.512,6.661,5.075,9,4l-1-3,2,1c1.77,4,2.83,3.359,2,8l2-1c1.615-5.12,1.46-5.543,8-6,5.769,2.472,9.788,5.255,13,9-2.843,2.258-1.679,5.679-8,2,1.363,4.453,1.589,3.91,5,6,2.357-2.481,2.226-1.009,5-2-0.215,4.513-.708,5.391-2,8l5-2,5-12,4,1v3l-4,2,7,8,2-1c0.164-6.554,1.136-9.216,5-12-1.64,4.581-2.872,7.03-3,14a71.3,71.3,0,0,0-17,7q-0.5,2.5-1,5l6-4c-0.135,7.6.879,8.813,6,11-4.934-6.748-4.82-6.577,0-13l2-1h5l-2,3c3.635-.644,3.027-0.4,5-2q-0.5-2-1-4c6.782,2.915,14.182-1.812,15-11,2.991,2.74,3.336,4.417,2,9l5-3q1-5.5,2-11c3.659,1.879,8.176.108,12-8l3,4,1-5,2,1,3,10c-3.4,1.346-2.069.607-4,3,3.4,4.949,4.708,3.91-1,7-1.975-2.835-1.472-1.97-1-6l-2,2,1,5h13a92.844,92.844,0,0,0,5,19l8,3c-1.947-7.443-3.663-6.689-6-13h1c4.242,0.518,3.944-.372,8-2,1.372,3.6.9,3.172,4,5l3-11-3-5c-10.171,1.186-5.036-5.231-10-12q1,4,2,8c-4.933.484-4.434,0.015-6,6l-5-1c0.164-6.695,1.39-12.181,5-18,5.731,3.142,6.735,1.766,15,1q-1-2.5-2-5c4.354,3.1,3.9,4.046,9,2,0.735,5.364.821,4.554,4,7h1l-1-4c-1.394-8.31-.4-15.415-2-27l6-8,5,4c1.738,6.473,4.031,10.516,11,12-2.824-5.5-6.938-8.8-9-16l6,1-5-5,1-4h1l3,3-1-5h5v1c-3.177,2.628-1.931-.017-1,4,3.006,1.284,2.245.628,4,3h4c-2.638-3.876-2.7-4.909-4-10l6,1-2-3c-2.144-1.406-2.377-2.281-4-4l2-3,2,2-1,2,2-2-3-3c-3.059-.659-1.545.985-3-3,4.325-1.13,2.569-.72,5-3v-1c-3.046-1.746-2.358-.552-4-4,10.341,0.2,8.2-2.22,9-10l3-1c-0.8,4.169-1.318,3.771-1,7l5,2c-0.089-3.876.851-9.087-2-12-1.213,3.544.472,2.061-4,2v-1l4-7h-5l1-3,6,1-2-3,4-2c-3.81-.987-4.986-1.259-7-4l11,3,1,4c0.926-5.509,1.34-3.967,4-7q-0.5-3-1-6c-6.747.428-7.665,1.665-10-4l3-1c-4.054-1.37-2.957-.985-5-4,5.743-.1,4.067,1.78,6-2,0.141-2.1.509-.35-1-2a10.484,10.484,0,0,1-11,0c1.628-2.619.965-2.426,2-5l8-1c1.7,4.8,4.738,5.05,8,5v-4c-3.19-1.231-3.96-6.638-10-8-0.815,4.948.668,2.978-3,5,0.133-9.548-1.74-16.183-8-23l2-1c6.619,0.544,8.488,2.592,13,5-2.831-5.489-8.242-10.476-15-9q1-4.5,2-9c-4.634-.934-6.434-2.206-9-5,1.975-8.526-.151-11.832,2-17l-4,2q-2.5-5-5-10c9.316-3.4,9.986-3.572,17-9h1v3l-2,1c4.428-2.17,4.986-4.592,7-9-8.126,2-21.161,8.255-27-1,1.713-3.77-.061-1.921,1-5h-9l2-6-5,2c-1.631-7.186-2.135-5.043-6-9a38.32,38.32,0,0,1,9-11c-1.792-1.337-1.519.175-1-2l1-3c-4.639,2.116-2.017,1.4-5-1-3.331,2.7-4.59,5.29-6,10l-5-1-4-14-3,5h-1c0.8-4.813,1.53-12.691,1-15l-10,6,3-1-3,6h-4l-1-1c2.275-3.824,4.3-4.66,5-13h-1v2l-6,5c-0.164-4.483.993-2.845-2-6l-2,4c-4.076-3.954-1.644-4.549-7-3V87h-5c-1.54-6.063-.422-7.626-5-9l3-14-2,1-4,9c-4.091-2.2-4.612-.237-8-1-0.826-5.909-2.32-6.358-6-9-3.1,1.148-2.972,1.407-6,1-0.842-3.856-.077-3.758-2-6l-2,3V54c-2.811,1.774-1.7,1.459-4,2-1.837-4.555-1.568-1.831-2-7l-8,1c-0.433-7.026-2.06-7.093-5-11-12.067,5.641-23.121,14.41-34,18,0.812,2.315,1.2,11.01-1,13-1.8,2.042-.015.707-3,2q-0.5-2-1-4c-2.068,2.046-2.262,3.364-5,5q-0.5-2.5-1-5c0.057,15.17-39.146,62.541-51,61v-1c2.627-1.627.822-1.161,4-1l-2-3h-5ZM236,46v7l2-1C236.522,48.7,237.747,47.074,236,46ZM354,170l-8,3c1.527,3.118,1.722,5.243,5,7,0.644-3.635.4-3.027,2-5,1.6,2.7.339,1.377,3,3-1.391-2.862-2.544-3.69-2-6l3,3v-3Zm-2,11-5,2v1h9v-3h-4Zm0,11,3,2Zm8,0c-1.963,2.066-.375,1.035-4,2v1c4.542,0.4,4.076,1.155,7-1h2v-1ZM341,327v0ZM156,346l2,2C156.608,346.077,157.9,347.4,156,346Zm28,6-3,2q0.5,2,1,4l3-2Q184.5,354,184,352Zm129,0v0Zm-52,17-4,5,4-1v-4Zm5,3v4l2-2Zm-2,2q-0.5,3-1,6l1,1,8-2C267.89,375.882,267.332,377.981,264,374Zm8,6v0Zm1,4v0Zm-92,6,3,1Zm174,1-1,2C356.059,392.128,355.109,393.02,355,391ZM119,401c1.392,1.923.1,0.6,2,2Zm28,1c1.688,2.48.6,1.17,3,0h-3Zm59,1c1.8,2.042.015,0.707,3,2Zm57,0c1.392,1.923.1,0.6,2,2Zm-51,8,2,1Zm19,8-4,6,5-1q0.5-2.5,1-5h-2Zm-10,2,3,7,2-2c-2.576-4.285-1.734-.31,0-5h-5Zm5,16-1,2,2-2h-1Z" transform="translate(-12)"/>
</svg>
